<svg id="shop-cart-svgrepo-com" xmlns="http://www.w3.org/2000/svg" width="42.255" height="40" viewBox="0 0 42.255 40">
  <defs>
    <style>
    
    </style>
  </defs>
  <path id="Path_726" data-name="Path 726" d="M42.255,6.28H11.092l-.892-5.1H2.3A2.284,2.284,0,0,0,0,3.446V5.711H6.317L10.382,28.96a1.171,1.171,0,0,0,1.12.927H38.8A2.285,2.285,0,0,0,41.1,27.618V25.355H14.428l-.562-3.212H34.957a5.607,5.607,0,0,0,5.369-4.469Z" transform="translate(0 -1.179)"/>
  <circle id="Ellipse_25" data-name="Ellipse 25" cx="4.165" cy="4.165" r="4.165" transform="translate(14.491 31.67)"/>
  <path id="Path_727" data-name="Path 727" d="M29.762,38.816a4.165,4.165,0,1,0,4.162-4.166A4.163,4.163,0,0,0,29.762,38.816Z" transform="translate(-1.905 -2.982)"/>
</svg>
