<svg id="credit-card-svgrepo-com" xmlns="http://www.w3.org/2000/svg" width="37.615" height="27.036" viewBox="0 0 37.615 27.036">
  <path id="Path_741" data-name="Path 741" fill="#2cbf6c" d="M2.351,41.03H35.264a2.351,2.351,0,0,1,2.351,2.351V65.714a2.353,2.353,0,0,1-2.351,2.352H2.351A2.352,2.352,0,0,1,0,65.714V43.381A2.35,2.35,0,0,1,2.351,41.03Z" transform="translate(0 -41.03)"/>
  <path id="Path_742" data-name="Path 742" fill="#cdcfcf" d="M39.108,177.795v2.351H57.915v-2.351Zm0,5.877H50.862v-2.351H39.108Zm-4.7-5.877H29.7a2.352,2.352,0,0,0-2.351,2.351v1.176a2.352,2.352,0,0,0,2.351,2.351h4.7a2.352,2.352,0,0,0,2.351-2.351v-1.176A2.352,2.352,0,0,0,34.406,177.795Z" transform="translate(-23.827 -160.163)"/>
  <path id="Path_743" data-name="Path 743" fill="#f1f1f1" d="M27.353,123.089H57.915v3.526H27.353Z" transform="translate(-23.827 -112.51)"/>
  <path id="Path_744" data-name="Path 744" fill="#324d5b" d="M0,68.383H37.615v3.526H0Z" transform="translate(0 -64.857)"/>
</svg>
