<svg id="paypal-svgrepo-com" xmlns="http://www.w3.org/2000/svg" width="42.489" height="27.291" viewBox="0 0 42.489 27.291">
  <defs>
    <style>
      .cls-1 {
        fill: none;
      }

      .cls-2 {
        fill: #003087;
      }

      .cls-3 {
        fill: #009cde;
      }
    </style>
  </defs>
  <path id="Path_745" data-name="Path 745" class="cls-1" d="M39.493,0H3A3,3,0,0,0,0,3v21.3a3,3,0,0,0,3,3h36.5a3,3,0,0,0,3-3V3A3,3,0,0,0,39.493,0Z"/>
  <path id="Path_746" data-name="Path 746" class="cls-2" d="M61.131,161.654a3.1,3.1,0,0,0-1.791-.472H56.488a.337.337,0,0,0-.374.338l-1.158,7.271a.238.238,0,0,0,.053.2.219.219,0,0,0,.178.089h1.354a.346.346,0,0,0,.392-.339l.321-1.96a.346.346,0,0,1,.125-.232.549.549,0,0,1,.267-.116,1.862,1.862,0,0,1,.3-.027q.142,0,.339.018t.249.018a3.27,3.27,0,0,0,2.406-.864,3.221,3.221,0,0,0,.873-2.4,1.718,1.718,0,0,0-.686-1.524Zm-1.47,2.183a1.011,1.011,0,0,1-.463.82,2.348,2.348,0,0,1-1.069.2l-.588.018.3-1.907a.213.213,0,0,1,.232-.2h.339a1.988,1.988,0,0,1,1.034.2Q59.768,163.178,59.661,163.837Z" transform="translate(-51.959 -152.402)"/>
  <path id="Path_747" data-name="Path 747" class="cls-3" d="M673.461,161.18h-1.319a.213.213,0,0,0-.232.2l-1.158,7.414-.018.036a.251.251,0,0,0,.071.169.229.229,0,0,0,.178.08h1.176a.337.337,0,0,0,.374-.339l1.158-7.289v-.018q0-.249-.232-.249Z" transform="translate(-634.197 -152.4)"/>
  <path id="Path_748" data-name="Path 748" class="cls-2" d="M314.474,209.529a.253.253,0,0,0-.071-.169.212.212,0,0,0-.16-.08H312.87a.377.377,0,0,0-.321.178l-1.889,2.78-.784-2.673a.375.375,0,0,0-.392-.285h-1.337a.21.21,0,0,0-.16.08.251.251,0,0,0-.071.169q0,.036.348,1.051t.749,2.192q.4,1.176.419,1.247a16.578,16.578,0,0,0-1.461,2.139.2.2,0,0,0,.232.232h1.372a.377.377,0,0,0,.321-.178l4.544-6.559a.174.174,0,0,0,.035-.125Z" transform="translate(-291.143 -197.88)"/>
  <path id="Path_749" data-name="Path 749" class="cls-3" d="M551.219,207.114h-1.354q-.25,0-.3.588a1.867,1.867,0,0,0-1.693-.713,2.878,2.878,0,0,0-2.183.962,3.205,3.205,0,0,0-.9,2.263,2.282,2.282,0,0,0,.615,1.675,2.209,2.209,0,0,0,1.649.624,2.82,2.82,0,0,0,1.051-.214,2.1,2.1,0,0,0,.838-.57,1.55,1.55,0,0,1-.036.16.971.971,0,0,0-.036.214q0,.285.232.285h1.23a.358.358,0,0,0,.392-.339l.731-4.651a.24.24,0,0,0-.053-.2A.22.22,0,0,0,551.219,207.114Zm-2.326,3.511a1.509,1.509,0,0,1-1.1.446,1.213,1.213,0,0,1-.838-.285.994.994,0,0,1-.321-.784,1.531,1.531,0,0,1,.446-1.114,1.485,1.485,0,0,1,1.1-.454,1.2,1.2,0,0,1,.829.294,1.032,1.032,0,0,1,.33.811A1.465,1.465,0,0,1,548.893,210.625Z" transform="translate(-515.109 -195.714)"/>
  <path id="Path_750" data-name="Path 750" class="cls-2" d="M179.557,207.114H178.2q-.25,0-.3.588a1.894,1.894,0,0,0-1.693-.713,2.879,2.879,0,0,0-2.183.962,3.206,3.206,0,0,0-.9,2.263,2.282,2.282,0,0,0,.615,1.675,2.209,2.209,0,0,0,1.648.624,2.779,2.779,0,0,0,1.034-.214,2.251,2.251,0,0,0,.855-.57,1.2,1.2,0,0,0-.071.374q0,.285.232.285h1.23a.358.358,0,0,0,.392-.339l.731-4.651a.24.24,0,0,0-.053-.2A.22.22,0,0,0,179.557,207.114Zm-2.326,3.52a1.546,1.546,0,0,1-1.114.437,1.179,1.179,0,0,1-.829-.285,1.008,1.008,0,0,1-.312-.784,1.53,1.53,0,0,1,.446-1.114,1.485,1.485,0,0,1,1.1-.454,1.2,1.2,0,0,1,.829.294,1.032,1.032,0,0,1,.33.811A1.455,1.455,0,0,1,177.231,210.633Z" transform="translate(-163.693 -195.714)"/>
  <path id="Path_751" data-name="Path 751" class="cls-3" d="M432.79,161.654a3.1,3.1,0,0,0-1.791-.472h-2.834a.346.346,0,0,0-.392.338l-1.158,7.271a.238.238,0,0,0,.053.2.218.218,0,0,0,.178.089h1.461a.284.284,0,0,0,.285-.232l.321-2.067a.346.346,0,0,1,.125-.232.55.55,0,0,1,.267-.116,1.861,1.861,0,0,1,.3-.027q.142,0,.339.018c.131.012.214.018.249.018a3.27,3.27,0,0,0,2.406-.864,3.22,3.22,0,0,0,.873-2.4,1.718,1.718,0,0,0-.686-1.524Zm-1.827,2.932a2.1,2.1,0,0,1-1.176.267l-.57.018.3-1.907a.213.213,0,0,1,.232-.2h.321a4.315,4.315,0,0,1,.624.036.883.883,0,0,1,.446.223.684.684,0,0,1,.214.544A1.148,1.148,0,0,1,430.963,164.586Z" transform="translate(-403.372 -152.402)"/>
</svg>
