<svg width="14" height="16" viewBox="0 0 14 16" xmlns="http://www.w3.org/2000/svg">
<path fill-rule="evenodd" clip-rule="evenodd" d="M6.63636 3.89999e-06C5.57667 -0.00140729 4.55217 0.380195 3.75161 1.0745C2.95106 1.76881 2.4284 2.72904 2.27992 3.77828C2.13144 4.82752 2.36715 5.89507 2.94362 6.78425C3.5201 7.67342 4.39849 8.3243 5.41697 8.61697C3.9697 8.79273 2.72848 9.30424 1.79273 10.2267C0.602424 11.3988 0 13.1455 0 15.4242C0 15.5769 0.0606598 15.7234 0.168635 15.8314C0.276611 15.9393 0.423057 16 0.575757 16C0.728458 16 0.874904 15.9393 0.982879 15.8314C1.09085 15.7234 1.15151 15.5769 1.15151 15.4242C1.15151 13.3394 1.70061 11.9333 2.60121 11.0461C3.50303 10.1576 4.85091 9.69697 6.63636 9.69697C8.42182 9.69697 9.76969 10.1576 10.6727 11.0461C11.5721 11.9345 12.1212 13.3394 12.1212 15.4242C12.1212 15.5769 12.1819 15.7234 12.2898 15.8314C12.3978 15.9393 12.5443 16 12.697 16C12.8497 16 12.9961 15.9393 13.1041 15.8314C13.2121 15.7234 13.2727 15.5769 13.2727 15.4242C13.2727 13.1455 12.6703 11.4 11.4788 10.2267C10.5455 9.30546 9.30303 8.79273 7.85575 8.61697C8.87083 8.32101 9.74524 7.66913 10.3187 6.78082C10.8922 5.8925 11.1263 4.82727 10.9781 3.78036C10.83 2.73345 10.3095 1.775 9.51208 1.08068C8.71465 0.386365 7.6937 0.00269907 6.63636 3.89999e-06ZM3.39394 4.39394C3.39394 3.534 3.73555 2.70928 4.34362 2.1012C4.95169 1.49313 5.77642 1.15152 6.63636 1.15152C7.49631 1.15152 8.32103 1.49313 8.9291 2.1012C9.53717 2.70928 9.87878 3.534 9.87878 4.39394C9.87878 5.25389 9.53717 6.07861 8.9291 6.68668C8.32103 7.29475 7.49631 7.63637 6.63636 7.63637C5.77642 7.63637 4.95169 7.29475 4.34362 6.68668C3.73555 6.07861 3.39394 5.25389 3.39394 4.39394Z" fill="inherit"/>
</svg>
