<svg width="16" height="16" viewBox="0 0 16 16" xmlns="http://www.w3.org/2000/svg">
<path d="M15.8953 3.18167C15.8528 3.13066 15.7996 3.08961 15.7395 3.06144C15.6794 3.03327 15.6138 3.01867 15.5474 3.01867H3.24533L2.85514 0.867867C2.81093 0.624295 2.68259 0.403978 2.49251 0.245365C2.30243 0.0867507 2.06269 -8.87412e-05 1.81512 6.80503e-08H0.452837C0.332737 6.80503e-08 0.217556 0.0477056 0.132633 0.132622C0.0477095 0.217539 0 0.33271 0 0.4528C0 0.57289 0.0477095 0.688062 0.132633 0.772978C0.217556 0.857894 0.332737 0.9056 0.452837 0.9056H1.81135C1.84709 0.905017 1.88188 0.917137 1.90952 0.939801C1.93716 0.962466 1.95586 0.994204 1.96229 1.02937L3.88761 11.6173C3.94868 11.9551 4.11326 12.2655 4.35856 12.5056C4.06235 12.7425 3.84115 13.0601 3.72174 13.4201C3.60232 13.7801 3.58981 14.167 3.6857 14.5339C3.7816 14.9009 3.9818 15.2322 4.26208 15.4877C4.54235 15.7433 4.89069 15.9121 5.26494 15.9738C5.63919 16.0356 6.0233 15.9875 6.3708 15.8355C6.7183 15.6834 7.01429 15.434 7.22294 15.1173C7.4316 14.8005 7.54399 14.4301 7.5465 14.0509C7.54901 13.6716 7.44154 13.2997 7.23709 12.9803H11.1783C10.9436 13.3475 10.8379 13.7823 10.8777 14.2163C10.9176 14.6502 11.1008 15.0586 11.3985 15.3769C11.6961 15.6952 12.0913 15.9054 12.5216 15.9743C12.9519 16.0431 13.3929 15.9668 13.7751 15.7574C14.1572 15.5479 14.4588 15.2172 14.6322 14.8173C14.8055 14.4175 14.8409 13.9714 14.7326 13.5493C14.6243 13.1272 14.3786 12.7531 14.0341 12.4861C13.6897 12.2191 13.2662 12.0743 12.8304 12.0747H5.52235C5.34559 12.0747 5.17444 12.0127 5.03872 11.8995C4.903 11.7862 4.81133 11.629 4.77969 11.4551L4.50799 9.9616H13.4417C13.8306 9.9617 14.2071 9.82532 14.5057 9.57625C14.8043 9.32718 15.0061 8.98121 15.0757 8.59867L15.9927 3.55222C16.0045 3.48709 16.002 3.42016 15.9851 3.35614C15.9683 3.29212 15.9377 3.23257 15.8953 3.18167ZM6.64161 14.0368C6.64161 14.2458 6.57964 14.45 6.46354 14.6238C6.34743 14.7975 6.18241 14.9329 5.98934 15.0129C5.79627 15.0929 5.58382 15.1138 5.37885 15.073C5.17389 15.0323 4.98562 14.9316 4.83785 14.7839C4.69008 14.6361 4.58944 14.4479 4.54867 14.2429C4.5079 14.038 4.52883 13.8255 4.6088 13.6325C4.68877 13.4394 4.8242 13.2744 4.99796 13.1583C5.17172 13.0422 5.37601 12.9803 5.58499 12.9803C5.86522 12.9803 6.13398 13.0916 6.33213 13.2897C6.53029 13.4879 6.64161 13.7566 6.64161 14.0368ZM13.887 14.0368C13.887 14.2458 13.825 14.45 13.7089 14.6238C13.5928 14.7975 13.4278 14.9329 13.2347 15.0129C13.0417 15.0929 12.8292 15.1138 12.6242 15.073C12.4193 15.0323 12.231 14.9316 12.0832 14.7839C11.9355 14.6361 11.8348 14.4479 11.7941 14.2429C11.7533 14.038 11.7742 13.8255 11.8542 13.6325C11.9342 13.4394 12.0696 13.2744 12.2434 13.1583C12.4171 13.0422 12.6214 12.9803 12.8304 12.9803C13.1106 12.9803 13.3794 13.0916 13.5775 13.2897C13.7757 13.4879 13.887 13.7566 13.887 14.0368ZM14.1844 8.43642C14.1527 8.6103 14.0611 8.76757 13.9253 8.88079C13.7896 8.99402 13.6185 9.05603 13.4417 9.056H4.34346L3.41062 3.92427H15.0048L14.1844 8.43642Z" fill="inherit"/>
</svg>
